<?xml version="1.0" encoding="UTF-8" standalone="no"?>
<svg
   xmlns:dc="http://purl.org/dc/elements/1.1/"
   xmlns:cc="http://creativecommons.org/ns#"
   xmlns:rdf="http://www.w3.org/1999/02/22-rdf-syntax-ns#"
   xmlns:svg="http://www.w3.org/2000/svg"
   xmlns="http://www.w3.org/2000/svg"
   xmlns:sodipodi="http://sodipodi.sourceforge.net/DTD/sodipodi-0.dtd"
   xmlns:inkscape="http://www.inkscape.org/namespaces/inkscape"
   width="210mm"
   height="297mm"
   viewBox="0 0 210 297"
   version="1.1"
   id="svg8"
   sodipodi:docname="rough-sketch.svg"
   inkscape:version="1.0.2 (e86c870879, 2021-01-15, custom)">
  <defs
     id="defs2" />
  <sodipodi:namedview
     id="base"
     pagecolor="#ffffff"
     bordercolor="#666666"
     borderopacity="1.0"
     inkscape:pageopacity="0.0"
     inkscape:pageshadow="2"
     inkscape:zoom="1.4"
     inkscape:cx="357.3907"
     inkscape:cy="366.63555"
     inkscape:document-units="mm"
     inkscape:current-layer="layer1"
     inkscape:document-rotation="0"
     showgrid="false"
     inkscape:window-width="1918"
     inkscape:window-height="2054"
     inkscape:window-x="-10"
     inkscape:window-y="0"
     inkscape:window-maximized="0" />
  <metadata
     id="metadata5">
    <rdf:RDF>
      <cc:Work
         rdf:about="">
        <dc:format>image/svg+xml</dc:format>
        <dc:type
           rdf:resource="http://purl.org/dc/dcmitype/StillImage" />
      </cc:Work>
    </rdf:RDF>
  </metadata>
  <g
     inkscape:label="Layer 1"
     inkscape:groupmode="layer"
     id="layer1">
    <rect
       style="fill:#0000ff;fill-rule:evenodd;stroke-width:0.264583"
       id="rect10"
       width="7.2162771"
       height="66.683746"
       x="30.067822"
       y="28.33057" />
    <rect
       style="fill:#0000ff;fill-rule:evenodd;stroke-width:0.264583"
       id="rect10-1"
       width="7.2162771"
       height="66.683746"
       x="126.28485"
       y="28.664658" />
    <rect
       style="fill:#333333;stroke-width:0.162373"
       id="rect40"
       width="15.501634"
       height="0.53453904"
       x="26.459682"
       y="28.063301" />
    <rect
       style="fill:#333333;stroke-width:0.264583"
       id="rect40-2"
       width="41.159508"
       height="0.53453904"
       x="108.24416"
       y="28.196936" />
    <rect
       style="fill:#666666;stroke-width:0.3339"
       id="rect62"
       width="41.426785"
       height="7.0233192"
       x="107.97688"
       y="21.173616" />
    <rect
       style="fill:#666666;stroke-width:0.220161"
       id="rect66"
       width="0.66817379"
       height="6.199399"
       x="33.341873"
       y="21.863903" />
    <path
       style="fill:none;stroke:#000000;stroke-width:0.264583px;stroke-linecap:butt;stroke-linejoin:miter;stroke-opacity:1"
       d="m 26.459682,28.063301 h 6.882191 v 0 l 0.03341,-1.135896 z"
       id="path70" />
    <path
       style="fill:none;stroke:#000000;stroke-width:0.269889px;stroke-linecap:butt;stroke-linejoin:miter;stroke-opacity:1"
       d="m 41.915721,28.013822 h -7.823434 v 0 l -0.03799,-1.039714 z"
       id="path70-2" />
    <rect
       style="fill:#1a1a1a;stroke-width:0.173901"
       id="rect92"
       width="13.570015"
       height="6.6817384"
       x="26.921318"
       y="94.479774" />
    <rect
       style="fill:#1a1a1a;stroke-width:0.173901"
       id="rect92-9"
       width="13.570015"
       height="6.6817384"
       x="122.97435"
       y="95.147957" />
    <path
       style="fill:none;stroke:#008000;stroke-width:0.264583px;stroke-linecap:butt;stroke-linejoin:miter;stroke-opacity:1"
       d="m 34.611402,93.811602 c 1.232525,-0.766749 2.594975,-1.234302 4.009044,-1.469983 0.491056,-0.08184 0.886081,-0.475199 1.336349,-0.668173 0.684482,-0.293349 1.480206,-0.472832 2.138156,-0.801807 0.112689,-0.05635 0.154578,-0.210925 0.267269,-0.267271 0.164272,-0.08214 0.370266,-0.0515 0.534538,-0.133633 0.169037,-0.08452 0.217559,-0.355068 0.400904,-0.400905 0.129646,-0.03241 0.271262,0.03241 0.400905,0 0.570883,-0.142721 1.144714,-0.653674 1.737251,-0.801809 0.705713,-0.176429 0.808906,0.05322 1.603619,-0.400905 0.109392,-0.06251 0.159231,-0.202445 0.267269,-0.267268 0.241577,-0.144947 0.560228,-0.122323 0.801809,-0.267269 0.613534,-0.368123 -0.134197,-0.213593 0.668173,-0.534541 0.340884,-0.136353 0.880333,-0.159117 1.202714,-0.400904 0.07968,-0.05976 0.05076,-0.212019 0.133633,-0.267269 0.159295,-0.106196 0.61739,-0.05987 0.801809,-0.133636 0.422315,-0.168926 0.789459,-0.664056 1.202714,-0.801806 0.276783,-0.09226 0.691396,-0.156859 0.935442,-0.400905 0.07043,-0.07043 0.0632,-0.196839 0.133636,-0.267271 0.258972,-0.258972 1.270895,-0.201817 1.603616,-0.534538 0.063,-0.063 -0.063,-0.204274 0,-0.267269 0.322657,-0.322659 0.362982,-0.03191 0.668173,-0.133636 0.08795,-0.02932 2.334398,-1.265319 2.405428,-1.336347 -0.06892,-0.496743 -0.219822,-1.086494 -0.133635,-1.603616 0.08089,-0.485323 0.21564,-1.006823 0.400904,-1.469983 0.07399,-0.184962 0.228201,-0.339196 0.26727,-0.534539 0.104636,-0.523181 0.161897,-1.076756 0.267269,-1.603617 0.06113,-0.305644 -0.135515,-0.798047 0,-1.069078 0.532881,-1.065762 0.26727,-5.595212 0.26727,-7.082642 0,-1.149434 0.127763,-2.224818 0.267269,-3.34087 0.04973,-0.397808 -0.04973,-0.804904 0,-1.202712 0.07307,-0.584536 0.171536,-1.162848 0.26727,-1.737252 0.119068,-0.71441 0,-1.538007 0,-2.271791 0,-1.692707 0,-3.385414 0,-5.078121 0,-0.700363 0.06056,-3.81485 -0.26727,-4.142678 -0.0315,-0.0315 -0.102136,0.0315 -0.133634,0 -0.140864,-0.140863 -0.126406,-0.393676 -0.26727,-0.534539 -0.09354,-0.09354 -1.376438,-1.109169 -1.469982,-1.202713 -1.039076,-1.039075 -1.964132,-2.243057 -2.939965,-3.340869 -1.665664,-1.873872 0.527628,0.661262 -1.069078,-0.935443 -0.270956,-0.270957 -0.422862,-0.641069 -0.668174,-0.935444 -0.123736,-0.148483 -0.593932,-0.556811 -0.668174,-0.668174 -0.07814,-0.117205 -0.0555,-0.283698 -0.133635,-0.400904 -0.09564,-0.409749 -0.599591,-0.38507 -0.801808,-0.668174 -0.139429,-0.1952 -0.111157,-0.486042 -0.26727,-0.668174 -0.129644,-0.151252 -0.393675,-0.126406 -0.534539,-0.267269 -0.140863,-0.140863 -0.126406,-0.393676 -0.267269,-0.534539 -0.140864,-0.140864 -0.381501,-0.139738 -0.534539,-0.26727 -0.123384,-0.102819 -0.143887,-0.298085 -0.26727,-0.400904 C 49.024555,41.16561 48.805159,41.141662 48.643054,41.025873 47.403728,40.14064 46.20513,39.168083 44.901281,38.353177 44.56342,38.142014 44.16371,38.039643 43.832203,37.818638 43.59488,37.660423 43.413362,37.422617 43.164029,37.284099 43.003478,37.194904 42.798303,37.222813 42.62949,37.150464 42.15055,36.945204 41.7272,36.504393 41.293142,36.215021 40.585602,35.743328 39.846802,35.372828 39.154986,34.878673 38.414893,34.350035 37.76055,33.77087 37.01683,33.275056 36.663772,33.039684 36.546162,32.604526 36.215021,32.339613 36.03197,32.193172 33.999557,30.581379 33.94323,30.468726 c -0.05345,-0.106908 0.05345,-0.293996 0,-0.400904 -0.08669,-0.17338 -0.257034,-0.524304 -0.400904,-0.668174 -0.0315,-0.0315 -0.102137,0.0315 -0.133635,0 -0.315374,-0.315373 -0.04208,-0.891028 -0.06682,-1.336347"
       id="path957" />
    <text
       xml:space="preserve"
       style="font-style:normal;font-weight:normal;font-size:10.5833px;line-height:0;font-family:sans-serif;fill:#000000;fill-opacity:1;stroke:none;stroke-width:0.264583"
       x="60.803814"
       y="63.610146"
       id="text961"><tspan
         sodipodi:role="line"
         x="60.803814"
         y="63.610146"
         style="font-size:3.88056px;line-height:1.15;stroke-width:0.264583"
         id="tspan963">70  7/8</tspan></text>
    <path
       style="fill:none;stroke:#008000;stroke-width:0.264583px;stroke-linecap:butt;stroke-linejoin:miter;stroke-opacity:1"
       d="m 34.010047,21.863903 c 1.687417,0.260684 0.860861,0.178067 1.269531,0.586737 0.111361,0.111362 0.423175,0.02227 0.534538,0.133635 0.0315,0.0315 -0.0315,0.102137 0,0.133634 0.08909,0.08909 0.311814,0.04455 0.400905,0.133635 0.029,0.029 0.107579,0.254243 0.133635,0.26727 0.126349,0.06318 0.434549,0.03364 0.534538,0.133634 0.0315,0.0315 -0.0315,0.102137 0,0.133635 0.182962,0.182961 0.638545,-0.05926 0.801809,0.26727 0.03984,0.07968 -0.03984,0.187585 0,0.267269 0.383998,0.767997 -0.357976,1.026149 -0.668173,1.336348 -0.06682,0.06682 0.06682,0.334087 0,0.400904 -0.106662,0.106663 -0.527974,-0.0701 -0.668174,0 -0.358822,0.179411 -0.59283,0.59283 -0.801809,0.801808 -0.106661,0.106662 -0.527973,-0.0701 -0.668173,0 -0.132654,0.06633 -0.519959,0.119055 -0.534541,0.133636 -0.0315,0.0315 0.0315,0.102137 0,0.133633 -0.02318,0.02318 -0.398848,-0.02249 -0.400904,0 -0.0082,0.08995 0.07405,0.164772 0.111067,0.247155"
       id="path967" />
    <text
       xml:space="preserve"
       style="font-style:normal;font-weight:normal;font-size:3.52778px;line-height:1.25;font-family:sans-serif;fill:#000000;fill-opacity:1;stroke:none;stroke-width:0.264583"
       x="38.219543"
       y="23.118814"
       id="text971"><tspan
         sodipodi:role="line"
         id="tspan969"
         x="38.219543"
         y="23.118814"
         style="font-size:3.52778px;stroke-width:0.264583">6 1/2</tspan></text>
    <path
       style="fill:none;stroke:#008000;stroke-width:0.264583px;stroke-linecap:butt;stroke-linejoin:miter;stroke-opacity:1"
       d="m 26.459682,28.063301 c -1.506887,0.222059 -0.906179,-0.453091 -1.603616,-0.801809 -0.07968,-0.03984 -0.204274,0.06299 -0.26727,0 -0.06682,-0.06682 -0.06682,-0.200451 -0.133635,-0.267269 -0.14734,-0.147341 -0.547992,-0.280723 -0.668173,-0.400905 -0.155908,-0.155907 -0.244998,-0.378632 -0.400905,-0.534539 -0.04454,-0.04455 -0.356359,-0.08909 -0.400904,-0.133635 -0.146879,-0.146879 -0.107122,-0.314203 -0.400904,-0.534539 -0.138817,-0.104113 -0.610332,-0.314141 -0.668174,-0.400904 -0.07814,-0.117206 -0.04912,-0.288214 -0.133635,-0.400905 -0.05976,-0.07968 -0.196837,-0.0632 -0.267269,-0.133635 -0.09955,-0.09955 -0.191762,-0.45903 -0.26727,-0.534539 -0.0315,-0.0315 -0.102136,0.0315 -0.133635,0 -0.063,-0.063 0.03984,-0.187585 0,-0.267269 -0.149867,-0.299735 -0.494281,-0.721293 -0.668173,-1.069078 -0.126112,-0.252223 -0.400905,-0.644784 -0.400905,-0.534539 0,0.04454 0.09379,-0.01992 0.133635,0 0.410555,0.205277 -0.221025,0.07537 0.26727,0.400904 0.213172,0.142115 0.344824,-0.0173 0.534539,0.267269 0.351002,0.526504 0.573513,0.306245 0.935443,0.668174 0.07043,0.07043 0.0632,0.196838 0.133635,0.26727 0.322148,0.322148 0.968015,0.484007 1.336347,0.668174 0.221298,0.110648 0.577105,0.02128 0.801809,0.133634 0.132575,0.06629 0.262483,0.221129 0.400904,0.26727 0.560098,0.186699 2.816793,0 3.608138,0 0.219398,0 1.557057,0.180197 1.737254,0 0.0315,-0.0315 -0.0315,-0.102137 0,-0.133635 0.101402,-0.101402 0.394536,-0.260901 0.534538,-0.400904 0.102134,-0.102134 0.04498,-0.758137 0.133635,-0.935444 0.147736,-0.295473 0.08294,-0.04147 0.267269,-0.133634 0.258824,-0.129412 0.142079,-0.405127 0.400905,-0.534539 0.140195,-0.0701 0.566589,-0.03205 0.668173,-0.133635 0.06682,-0.06682 0.06682,-0.200452 0.133636,-0.26727 0.063,-0.063 0.187584,0.03984 0.267269,0 0.419907,-0.209953 0.246586,-0.128405 1.00226,-0.319467"
       id="path973" />
    <text
       xml:space="preserve"
       style="font-style:normal;font-weight:normal;font-size:3.52778px;line-height:1.25;font-family:sans-serif;fill:#000000;fill-opacity:1;stroke:none;stroke-width:0.264583"
       x="14.833458"
       y="18.708866"
       id="text977"><tspan
         sodipodi:role="line"
         id="tspan975"
         x="14.833458"
         y="18.708866"
         style="font-size:3.52778px;stroke-width:0.264583">7 1/4</tspan></text>
    <path
       style="fill:none;stroke:#008000;stroke-width:0.264583px;stroke-linecap:butt;stroke-linejoin:miter;stroke-opacity:1"
       d="m 41.961315,28.597838 c 0.27839,0.0085 0.872834,0.204661 1.069078,0.400905 0.0315,0.0315 -0.0315,0.102137 0,0.133636 0.151638,0.151635 0.330327,-0.172686 0.534538,0.133633 0.04942,0.07413 -0.06299,0.204274 0,0.267271 0.264673,0.264671 0.700278,0.283322 0.935445,0.400905 0.404778,0.202388 0.563388,0.563385 0.801809,0.801807 0.129868,0.12987 0.387607,0.02344 0.534538,0.133635 0.07968,0.05976 0.0632,0.196837 0.133636,0.267269 0.162835,0.162838 0.505335,0.238067 0.668173,0.400905 0.0315,0.0315 0,0.08909 0,0.133636 0.08909,0.08909 0.166476,0.191672 0.267269,0.267268 0.100793,0.07559 0.356359,0.178179 0.267269,0.267269 -0.05157,0.05158 -1.110464,-1.193239 -1.202711,-1.469982 -0.192863,-0.578586 0.255468,0.04912 -0.133636,-0.534538 -0.172379,-0.258572 -0.220697,-0.01349 -0.400905,-0.133636 -0.560583,-0.373724 -0.02593,-0.293211 -0.267268,-0.534538 -0.01746,-0.01746 -1.147654,-0.373374 -1.202714,-0.400904 -0.03984,-0.01992 0.0315,-0.102137 0,-0.133636 -0.063,-0.063 -0.204272,0.063 -0.267269,0 -0.08761,-0.08761 -0.200319,-0.333952 -0.267269,-0.400905 -0.102584,-0.102581 -0.420693,-0.07671 -0.53454,-0.133633 -0.02606,-0.01302 -0.104638,-0.238273 -0.133633,-0.267271 -0.063,-0.06299 -0.179912,0.01746 -0.267272,0 -0.180096,-0.03602 -0.356359,-0.08909 -0.534538,-0.133633"
       id="path981" />
    <text
       xml:space="preserve"
       style="font-style:normal;font-weight:normal;font-size:3.52778px;line-height:1.25;font-family:sans-serif;fill:#000000;fill-opacity:1;stroke:none;stroke-width:0.264583"
       x="46.638535"
       y="33.809597"
       id="text985"><tspan
         sodipodi:role="line"
         id="tspan983"
         x="46.638535"
         y="33.809597"
         style="font-size:3.52778px;stroke-width:0.264583">1/4</tspan></text>
    <path
       style="fill:none;stroke:#008000;stroke-width:0.264583px;stroke-linecap:butt;stroke-linejoin:miter;stroke-opacity:1"
       d="m 34.054296,26.974106 c 1.914778,-0.496149 4.660587,0.344996 6.437037,-0.247155 0.501263,-0.167087 1.106905,0.114724 1.603618,-0.133633 0.03984,-0.01992 -0.04226,-0.119549 0,-0.133636 0.308565,-0.102855 0.857094,0 1.202711,0 0.38336,0 0.557118,-0.05797 0.935445,-0.133634 0.520306,-0.104061 0.96828,0.0336 1.469983,-0.133635 0.24742,-0.08247 3.073598,-0.159982 3.073598,-0.267269 0,-0.0784 -1.758225,0.105469 -1.870887,0.133635 -0.434435,0.108609 -0.883404,0.176681 -1.336347,0.267269 -0.192947,0.03859 -0.481772,-0.06213 -0.668173,0 -0.08155,0.02718 -0.319352,0.240087 -0.400905,0.26727 -0.120272,0.04009 -0.280633,-0.04009 -0.400904,0 -0.501846,0.16728 -1.043382,0.394481 -1.603619,0.534538 -0.547161,0.136792 -0.663813,0.465542 -1.069078,0.668173 -0.09795,0.04898 -0.436912,0.133636 -0.534538,0.133636 -0.04454,0 -0.17803,-0.0037 -0.133635,0 0.385423,0.03169 0.771413,0.0561 1.157118,0.08416"
       id="path993" />
    <text
       xml:space="preserve"
       style="font-size:3.175px;line-height:1.25;font-family:sans-serif;stroke-width:0.264583"
       x="49.177593"
       y="25.925144"
       id="text997"><tspan
         sodipodi:role="line"
         id="tspan995"
         x="49.177593"
         y="25.925144"
         style="stroke-width:0.264583">1/2</tspan></text>
    <path
       style="fill:none;stroke:#008000;stroke-width:0.264583px;stroke-linecap:butt;stroke-linejoin:miter;stroke-opacity:1"
       d="m 136.54437,101.82969 c 0.36648,-0.0891 0.72813,-0.20112 1.09943,-0.26727 0.66553,-0.11856 1.459,0 2.13816,0 1.87089,0 3.74178,0 5.61266,0 0.55431,0 1.33199,0.13472 1.87089,0 0.0432,-0.0108 0,-0.0891 0,-0.13364 0,-0.22272 0,-0.44545 0,-0.66817 0,-0.4553 -0.0462,-0.765616 -0.13364,-1.202713 -0.20406,-1.020315 0,-2.298218 0,-3.340867 0,-1.972159 -0.18777,-4.085106 0.13364,-6.013567 0.15973,-0.958413 -0.004,-1.97767 0.13363,-2.939962 0.14247,-0.997276 0.52717,-1.952919 0.66818,-2.939966 0.10945,-0.766172 0.1503,-1.519975 0.4009,-2.271791 0.0759,-0.227571 0.21523,-0.434004 0.26727,-0.668174 0.0386,-0.173937 -0.0432,-0.36168 0,-0.534538 0.24045,-0.961797 0.2363,-0.140136 0.53454,-0.935445 0.0633,-0.168706 0.16457,-0.99732 0.26727,-1.202713 1.15111,-2.302227 -0.2628,1.103198 0.66817,-1.069078 0.11098,-0.258948 0.12232,-0.560229 0.26727,-0.801807 0.32264,-0.537723 0.71503,-1.072539 1.06908,-1.603618 0.16698,-0.250473 0.30401,-0.83855 0.53454,-1.069078 0.11357,-0.113567 0.30057,-0.141854 0.4009,-0.267269 0.088,-0.109995 0.0612,-0.280115 0.13364,-0.400905 0.19913,-0.331891 0.62721,-0.58625 0.80181,-0.935442 0.1406,-0.281199 -0.58225,-0.04771 -0.66818,-0.133636 -0.0315,-0.0315 0.0315,-0.102137 0,-0.133636 -0.0567,-0.05669 -1.40179,-0.332718 -1.60362,-0.534537 -0.067,-0.067 -0.10146,-0.345636 -0.26726,-0.400905 -0.0845,-0.02817 -0.21382,0.07127 -0.26727,0 -0.1102,-0.146931 -0.0515,-0.370266 -0.13364,-0.53454 -0.20106,-0.402122 -0.59918,-0.797454 -0.80181,-1.202711 -0.0598,-0.119529 0.0324,-0.271259 0,-0.400905 -0.0838,-0.335137 -0.34941,-0.574998 -0.4009,-0.935442 -0.0761,-0.532644 -0.19965,-1.062665 -0.26727,-1.603619 -0.16507,-1.320588 -0.10061,-2.675752 -0.26727,-4.009043 -0.13917,-1.113343 0.0502,-2.237886 -0.13363,-3.340867 -0.19511,-1.170647 0.16791,-2.432757 0,-3.608139 -0.14252,-0.997585 -0.0836,-2.121792 -0.40091,-3.073601 -0.0907,-0.27224 0.0473,-0.65182 0,-0.935442 -0.39314,-2.358832 -0.77746,-4.77425 -1.46998,-7.082642 -0.26994,-0.899808 -0.0428,-0.428064 -0.13364,-1.33635 -0.008,-0.08272 -0.20904,-1.066845 -0.26727,-1.202711 -0.0506,-0.118068 -0.36408,-0.484058 -0.4009,-0.668176 -0.0262,-0.131037 0.0423,-0.274127 0,-0.400902 -0.0141,-0.04226 -0.11371,0.03984 -0.13364,0 -0.0245,-0.04895 0.0562,-0.478324 0,-0.53454 -0.0315,-0.0315 -0.10213,0.0315 -0.13363,0 -0.38242,-0.382424 -0.42695,-1.095124 -0.80181,-1.469983 -0.0704,-0.07043 -0.21202,-0.05076 -0.26727,-0.133633 -0.0494,-0.07413 0.063,-0.204274 0,-0.267271 -0.063,-0.063 -0.20427,0.063 -0.26727,0 -0.4572,-0.457206 0.21975,-0.357849 -0.4009,-0.668174 -0.0797,-0.03984 -0.20427,0.063 -0.26727,0 -0.0641,-0.06409 -0.0695,-0.47045 -0.13363,-0.534538 -0.20572,-0.205716 -0.5961,-0.328826 -0.80181,-0.53454 -0.14087,-0.140864 -0.1079,-0.415012 -0.26727,-0.534538 -0.11269,-0.08452 -0.3013,-0.03403 -0.40091,-0.133635 -0.0996,-0.0996 -0.0435,-0.29269 -0.13363,-0.400905 -0.34459,-0.413509 -0.96402,-0.696741 -1.33635,-1.069078 -0.18522,-0.185224 -0.26647,-0.534141 -0.53454,-0.668174 -0.0398,-0.01992 -0.10213,0.0315 -0.13363,0 -0.20046,-0.200451 -0.20046,-0.601355 -0.40091,-0.801809 -0.0704,-0.07043 -0.19684,-0.0632 -0.26727,-0.133633 -0.14598,-0.145986 -0.29089,-0.558165 -0.4009,-0.668176 -0.1123,-0.112297 -0.48928,-0.281638 -0.66817,-0.400902 -0.30701,-0.204674 0.0573,-0.07633 -0.26728,-0.400904 -0.0315,-0.0315 -0.0938,0.01992 -0.13363,0 -0.0104,-0.0052 -0.53229,-0.793952 -0.53454,-0.80181 -0.0624,-0.218397 -0.0442,-0.459404 -0.13363,-0.668173 -0.0877,-0.204716 -0.3013,-0.335328 -0.40091,-0.53454 -0.15573,-0.311457 -0.35576,-0.444257 -0.53454,-0.80181 -0.0148,-0.02958 -0.12624,-0.252478 -0.13363,-0.267269 -0.0199,-0.03984 0.0445,-0.134805 0,-0.133633 -0.84869,0.02233 -1.69271,0.133633 -2.53906,0.200451"
       id="path1001" />
    <text
       xml:space="preserve"
       style="font-size:3.175px;line-height:1.25;font-family:sans-serif;stroke-width:0.264583"
       x="152.47726"
       y="69.890976"
       id="text1005"><tspan
         sodipodi:role="line"
         id="tspan1003"
         x="152.47726"
         y="69.890976"
         style="stroke-width:0.264583">75  1/4</tspan></text>
    <path
       style="fill:none;stroke:#008000;stroke-width:0.264583px;stroke-linecap:butt;stroke-linejoin:miter;stroke-opacity:1"
       d="m 122.97435,101.82969 c -0.50784,0.008 -1.22712,0.26876 -1.76762,0.13363 -0.96223,-0.24055 -1.85234,-0.13098 -2.80633,-0.26727 -1.49451,-0.2135 -2.91586,-0.21414 -4.40995,-0.4009 -0.9444,-0.11805 -1.87232,0.022 -2.80633,-0.13363 -0.29836,-0.0497 -1.78906,0.0818 -1.87088,0 -0.12623,-0.12623 0.32548,-0.91825 0.4009,-1.06908 0.12027,-0.240551 0.62273,-0.955458 0.66817,-1.069081 0.0496,-0.124076 -0.022,-0.269089 0,-0.400904 0.24546,-1.472724 -0.007,0.151307 0.26727,-0.534541 0.18115,-0.452853 0.26671,-1.000305 0.40091,-1.46998 0.1926,-0.674113 0.4801,-1.346284 0.66817,-2.004523 0.10381,-0.363318 0.071,-0.826815 0.13364,-1.202713 0.14591,-0.875483 0.0587,0.01627 0.4009,-0.668174 0.36162,-0.723241 0.0335,-0.301265 0.13364,-0.801806 0.047,-0.235226 0.22783,-0.431557 0.26727,-0.668177 0.0586,-0.351509 -0.0442,-0.71547 0,-1.069078 0.0678,-0.542761 0.33305,-1.060852 0.4009,-1.603615 0.0442,-0.353608 -0.0586,-0.717569 0,-1.069078 0.21385,-1.28314 0.28179,-2.94295 0.13363,-4.276313 -0.0502,-0.451493 -0.2171,-0.884856 -0.26727,-1.336347 -0.0483,-0.434908 -0.0194,-1.661771 -0.13363,-2.004523 -0.0508,-0.152365 -0.21648,-0.248536 -0.26727,-0.400904 -0.0423,-0.126778 0.022,-0.269087 0,-0.400905 -0.0853,-0.511635 -0.47112,-0.962591 -0.53454,-1.469982 -0.0276,-0.221004 0.0483,-0.450752 0,-0.668174 -0.12805,-0.576223 -0.62013,-1.532567 -0.80181,-2.138156 -0.0634,-0.21141 -0.16444,-0.96279 -0.26727,-1.202711 -0.0633,-0.147624 -0.204,-0.253283 -0.26727,-0.400905 -0.61747,-1.440778 0.19483,0.214178 -0.13363,-0.935445 -0.13584,-0.47544 -0.50021,-0.888436 -0.66817,-1.336347 -0.20475,-0.545983 -0.19391,-1.185243 -0.40091,-1.737251 -0.1261,-0.336267 -0.42097,-0.594741 -0.53454,-0.935442 -0.0423,-0.126778 0.0324,-0.271262 0,-0.400905 -0.17064,-0.682572 -0.62603,-1.252061 -0.93544,-1.870887 -0.0605,-0.121034 -0.63315,-0.703199 -0.53454,-0.801809 0.0521,-0.05207 0.45299,0 0.53454,0 0.43395,0 2.08829,0.158567 2.40542,0 0.0563,-0.02817 0.0725,-0.118356 0.13364,-0.133636 0.12964,-0.03241 0.28138,0.05976 0.4009,0 0.0891,-0.04454 0.0632,-0.196837 0.13364,-0.267269 0.12599,-0.125992 0.3691,0.06618 0.53454,0 0.31743,-0.126974 0.65562,-0.591944 0.93544,-0.801809 0.26798,-0.200983 0.7012,-0.300292 0.93544,-0.534538 0.0704,-0.07043 0.054,-0.207507 0.13364,-0.267269 0.11269,-0.08452 0.3013,-0.03403 0.4009,-0.133635 0.14087,-0.140865 0.13974,-0.381501 0.26727,-0.534538 1.0438,-0.695868 -0.11094,0.192468 0.53454,-0.668176 0.0598,-0.07968 0.22272,-0.04454 0.26727,-0.133633 0.0598,-0.119529 -0.0687,-0.286314 0,-0.400905 0.0826,-0.137721 0.28734,-0.153702 0.4009,-0.267269 0.22777,-0.227766 0.36596,-0.654476 0.53454,-0.935445 0.22803,-0.380039 0.62698,-0.661133 0.80181,-1.069078 0.0724,-0.168812 0.0391,-0.377047 0.13364,-0.534538 0.0512,-0.08541 0.2075,-0.05395 0.26727,-0.133635 0.0845,-0.112692 0.0491,-0.288214 0.13363,-0.400905 0.0598,-0.07968 0.20751,-0.05395 0.26727,-0.133633 0.29911,-0.398812 0.44232,-1.018273 0.66817,-1.469983 0.0845,-0.169037 0.30367,-0.23885 0.40091,-0.400904 0.2074,-0.345676 0.26333,-0.835851 0.4009,-1.202714 0.21523,-0.573932 0.51796,-1.136399 0.66818,-1.737252 0.12335,-0.493408 0.14391,-0.976574 0.26727,-1.469982 0.0483,-0.193262 0.21895,-0.341276 0.26727,-0.534538 0.17593,-0.703733 0.128,-1.441823 0.26727,-2.138156 -0.25995,-0.371277 0.21895,-0.341278 0.26726,-0.53454 0.16833,-0.673291 0.2827,-1.42893 0.40091,-2.138156 0.065,-0.39007 -0.065,-0.812644 0,-1.202714 0.0817,-0.490289 0.31919,-0.979691 0.4009,-1.469983 0.022,-0.131815 -0.0324,-0.271259 0,-0.400902 0.0153,-0.06112 0.0891,-0.08909 0.13364,-0.133636 0.0445,-0.133635 0.11048,-0.261958 0.13363,-0.400904 0.11727,-0.703599 0.14824,-1.423948 0.26727,-2.138156 0.10993,-0.659564 0.40523,-1.224323 0.53454,-1.870887 0.1556,-0.777984 -0.0212,-1.631382 0.13364,-2.405425 0.0521,-0.260758 0.45362,-2.377221 0.53454,-2.539061 0.0199,-0.03984 0.11371,0.03984 0.13363,0 0.15867,-0.317339 0.003,-0.876549 0.13363,-1.202714 0.6338,-1.584476 -0.079,0.558898 0.53454,-0.668173 0.0398,-0.07969 0,-0.178179 0,-0.267269 0.0891,-0.08909 0.19739,-0.162439 0.26727,-0.267269 0.0535,-0.08018 -0.0668,-0.334087 0,-0.400905 0.0315,-0.0315 0.11372,0.03984 0.13364,0 0.0398,-0.07968 -0.063,-0.204274 0,-0.267269 0.063,-0.063 0.20427,0.063 0.26727,0 0.063,-0.063 -0.0494,-0.193143 0,-0.267271 0.0553,-0.08288 0.21202,-0.05076 0.26727,-0.133633 0.0741,-0.111191 -0.0945,-0.306411 0,-0.400905 0.0668,-0.06682 0.20045,-0.06682 0.26727,-0.133635 0.063,-0.063 0,-0.178179 0,-0.267269 0.31181,-0.244997 0.62362,-0.489993 0.93544,-0.734992"
       id="path1007" />
    <text
       xml:space="preserve"
       style="font-size:3.175px;line-height:1.25;font-family:sans-serif;stroke-width:0.264583"
       x="102.09695"
       y="64.812859"
       id="text1011"><tspan
         sodipodi:role="line"
         id="tspan1009"
         x="102.09695"
         y="64.812859"
         style="stroke-width:0.264583">75  3/8</tspan></text>
    <path
       style="fill:none;stroke:#008000;stroke-width:0.264583px;stroke-linecap:butt;stroke-linejoin:miter;stroke-opacity:1"
       d="m 125.75031,67.752824 c -0.10056,0.597763 -0.49483,0.628465 -0.80181,0.935443 -0.54497,0.54497 -0.26727,2.102392 -0.26727,2.806332 0,0.334301 -0.065,0.743876 0,1.069078 0.16885,0.844246 1.3161,2.159077 1.87089,2.806329 0.28989,0.338209 0.4636,0.779182 0.80181,1.069078 0.15125,0.129644 0.36878,0.156766 0.53454,0.267269 0.15724,0.104834 0.23187,0.316386 0.4009,0.400905 0.0797,0.03984 0.20428,-0.063 0.26727,0 0.0315,0.0315 -0.0315,0.102137 0,0.133636 0.0945,0.09449 0.26727,0 0.4009,0 0.29847,0 0.78829,0.0936 1.06908,0 0.15351,-0.05117 0.18541,-0.319045 0.26727,-0.400905 0.23012,-0.230113 0.94494,-0.763595 1.20272,-0.935445 0.0524,-0.03494 0.0891,-0.08909 0.13363,-0.133633 0.13364,-0.04454 0.28012,-0.06116 0.40091,-0.133636 1.43973,-0.863838 -0.66031,0.261369 0.4009,-0.534537 0.11269,-0.08452 0.29091,-0.04564 0.4009,-0.133636 0.28876,-0.231008 0.32431,-0.65513 0.53454,-0.935442 0.15119,-0.201589 0.44096,-0.30058 0.53454,-0.534541 0.0496,-0.124076 -0.0262,-0.269864 0,-0.400904 0.0724,-0.361966 0.21194,-0.219599 0.4009,-0.534538 0.33668,-0.561118 0.7698,-3.53853 0.40091,-4.276312 -0.1394,-0.278794 -0.38688,-0.239226 -0.53454,-0.534541 -0.13834,-0.276674 -0.0408,-0.383582 -0.26727,-0.534537 -0.24581,-0.163873 -0.3441,-0.07683 -0.53454,-0.267272"
       id="path1013" />
    <text
       xml:space="preserve"
       style="font-size:3.175px;line-height:1.25;font-family:sans-serif;stroke-width:0.264583"
       x="121.07309"
       y="72.897758"
       id="text1017"><tspan
         sodipodi:role="line"
         id="tspan1015"
         x="121.07309"
         y="72.897758"
         style="stroke-width:0.264583">4&quot;</tspan></text>
    <path
       style="fill:none;stroke:#008080;stroke-width:0.264583px;stroke-linecap:butt;stroke-linejoin:miter;stroke-opacity:1"
       d="m 41.961315,28.597838 c -0.329472,0.865707 -0.974322,1.528305 -1.469982,2.271792 -0.204671,0.307007 -0.07633,-0.0573 -0.400905,0.267269 -0.397954,0.397955 0.199866,0.174077 -0.400904,0.534541 -0.0946,0.407458 -0.370266,0.05149 -0.534538,0.133633 -0.112691,0.05635 -0.162438,0.197381 -0.267269,0.267271 -0.180729,0.120483 -0.85453,0.329388 -1.069078,0.400902 -0.169037,0.05635 -0.358151,-0.02519 -0.53454,0 -0.498391,0.0712 -0.995027,0.305914 -1.469983,0.400905 -0.17472,0.03494 -0.36168,-0.04321 -0.534538,0 -0.348641,0.08716 -0.726974,0.343887 -1.069078,0.400904 -0.307573,0.05126 -0.635627,-0.08566 -0.935445,0 -0.383093,0.109456 -0.691102,0.408549 -1.069078,0.534541 -0.862769,0.287588 -1.796431,0.551447 -2.672694,0.801806 -1.732171,0.494909 -3.367895,0.899909 -5.078122,1.469983 -0.772603,0.257535 -1.643093,0.382299 -2.405425,0.668176 -0.150383,0.05639 -0.253282,0.204002 -0.400905,0.267269 -0.652507,0.279646 -1.343686,0.518594 -2.004521,0.801809 -0.552112,0.236619 -1.046982,0.579154 -1.603617,0.801807 -0.360231,0.144092 -0.868647,0.233873 -1.202713,0.400904 -0.112691,0.05635 -0.162438,0.197382 -0.267269,0.267269 -0.696853,0.464569 -0.332694,0.162073 -1.069078,0.267271 -0.526056,0.07515 -0.296268,0.121973 -0.668174,0.400905 -0.112691,0.08452 -0.400905,-0.0072 -0.400905,0.133633 0,0.102111 1.819718,-0.258741 1.870887,-0.267269 0.820606,-0.136768 2.685044,-0.176305 3.340869,-0.668173 0.07968,-0.05976 0.03914,-0.235773 0.133635,-0.267269 0.211295,-0.07043 0.448479,0.03662 0.668174,0 0.103284,-0.01722 2.359243,-1.156531 2.405425,-1.202714 0.07043,-0.07043 0.05395,-0.207507 0.133635,-0.267269 0.112691,-0.08452 0.274912,-0.07064 0.400904,-0.133635 0.504357,-0.252177 0.845617,-0.908275 1.336348,-1.202714 0.120789,-0.07247 0.283699,-0.0555 0.400904,-0.133633 0.146266,-0.09751 0.270226,-0.671132 0.400905,-0.801809 0.07043,-0.07043 0.196837,-0.0632 0.267269,-0.133636 0.202523,-0.202523 0.72722,-1.572535 0.801809,-1.870885 0.06464,-0.258567 0.01389,-0.695986 0.133633,-0.935445 0.09839,-0.196784 0.177305,-0.177305 0.267272,-0.267269 0.0868,-0.08681 0.267269,-0.888079 0.267269,-0.935442 0,-0.148436 0.09449,-0.840952 0,-0.935445 -0.0315,-0.0315 -0.08909,0 -0.133636,0 -0.222724,-0.489995 -0.44545,-0.979987 -0.668174,-1.469983"
       id="path1019" />
    <text
       xml:space="preserve"
       style="font-size:3.175px;line-height:1.25;font-family:sans-serif;stroke-width:0.264583"
       x="9.3544331"
       y="42.896759"
       id="text1023"><tspan
         sodipodi:role="line"
         id="tspan1021"
         x="9.3544331"
         y="42.896759"
         style="stroke-width:0.264583">3  7/8</tspan></text>
    <path
       style="fill:none;stroke:#ffcc00;stroke-width:0.264583px;stroke-linecap:butt;stroke-linejoin:miter;stroke-opacity:1"
       d="m 26.459682,28.063301 c 0.525558,-0.847191 0.63382,-1.901463 0.935445,-2.806331 0.01992,-0.05976 0.08909,-0.08909 0.133633,-0.133635 0.04455,-0.08909 0.109477,-0.170638 0.133636,-0.267269 0.07862,-0.314495 -0.14193,-0.785216 0,-1.069078 0.01992,-0.03984 0.11955,0.04226 0.133633,0 0.05635,-0.169036 -0.05634,-0.365503 0,-0.53454 0.391891,-1.175664 0.267272,-2.630113 0.267272,-4.009042 0,-0.662808 -0.16332,-1.618521 0,-2.271791 0.153556,-0.614224 0.133633,-0.03032 0.133633,-0.400904 0,-0.414112 0.133636,-0.777925 0.133636,-1.202713 0,-0.05759 0.165131,-0.400905 0.133635,-0.400905 -0.04454,0 -0.0315,0.102137 0,0.133635 0.063,0.063 0.187585,-0.03984 0.267269,0 0.160362,0.08018 0.240544,0.320724 0.400905,0.400905 0.197757,0.09888 0.115517,0.26123 0.133633,0.267269 0.126778,0.04226 0.274129,-0.04226 0.400905,0 0.04226,0.01409 -0.0315,0.102137 0,0.133635 0.258548,0.258547 1.120618,-0.185175 1.202713,-0.26727 0.09449,-0.09449 0.133636,-0.400904 0,-0.400904 -0.133635,0 0,0.26727 0,0.400904 0,0.196232 -0.123195,0.945883 0,1.069078 0.063,0.063 0.187585,-0.03984 0.267269,0 0.556157,0.278078 -0.142859,-0.0092 0.133636,0.26727 0.063,0.063 0.204274,-0.063 0.267269,0 0.06682,0.06682 0.06682,0.200452 0.133636,0.267269 0.08909,0.08909 0.445447,-0.08909 0.534537,0 0.167479,0.167478 -0.164814,2.106976 0,2.271791 0.0315,0.0315 0.102137,-0.0315 0.133636,0 0.136713,0.136715 -0.02839,0.773421 0.133633,0.935444 0.063,0.063 0.204274,-0.063 0.267272,0 0.06682,0.06682 0.06682,0.200452 0.133633,0.267269 0.399616,0.399616 0.08273,-0.545863 0.467722,1.150515"
       id="path1025" />
    <text
       xml:space="preserve"
       style="font-size:3.175px;line-height:1.25;font-family:sans-serif;stroke-width:0.264583"
       x="30.201456"
       y="13.096207"
       id="text1029"><tspan
         sodipodi:role="line"
         id="tspan1027"
         x="30.201456"
         y="13.096207"
         style="stroke-width:0.264583">1  3/4</tspan></text>
    <path
       style="fill:none;stroke:#ff0000;stroke-width:0.264583px;stroke-linecap:butt;stroke-linejoin:miter;stroke-opacity:1"
       d="m 34.010047,21.863903 c 0.09211,-0.115772 0.883869,-1.383401 1.135896,-1.551419 0.07413,-0.04942 0.18275,0.02817 0.267268,0 0.261901,-0.0873 0.368036,-0.368034 0.534541,-0.534539 0.193828,-0.193828 0.44922,-0.103056 0.668173,-0.26727 0.201586,-0.15119 0.332952,-0.383348 0.534538,-0.534539 0.266351,-0.199763 0.41751,-0.08757 0.668176,-0.400904 0.08799,-0.109996 0.03403,-0.301299 0.133633,-0.400904 0.0996,-0.09961 0.290909,-0.04564 0.400905,-0.133635 0.202821,-0.162258 0.193114,-0.51233 0.400904,-0.668174 0.112692,-0.08452 0.274913,-0.07064 0.400905,-0.133635 0.137197,-0.0686 0.975378,-1.085588 1.069078,-1.202712 0.324215,-0.405269 0.41184,-0.144571 0.801809,-0.534539 0.113567,-0.113568 0.153702,-0.287337 0.267269,-0.400905 0.521541,-0.521541 0.07177,0.03093 0.400905,-0.133635 0.08909,-0.04454 0.04454,-0.222724 0.133633,-0.267269 0.07968,-0.03984 0.182753,0.02817 0.267271,0 0.119526,-0.03984 0.154578,-0.210924 0.267269,-0.26727 0.324744,-0.162372 1.112978,0 1.469983,0 0.687313,0 1.609637,-0.165538 2.271789,0 1.033909,0.258477 2.39305,0.49412 3.474506,0.133635 0.642032,-0.214011 1.162774,-0.61629 1.737251,-0.935443 0.419388,-0.232994 0.907235,-0.319983 1.336347,-0.534539 0.287306,-0.143653 0.497075,-0.432961 0.801809,-0.534539 0.126778,-0.04226 0.281377,0.05976 0.400905,0 0.169034,-0.08452 0.249713,-0.287512 0.400904,-0.400905 0.336188,-0.252141 0.719421,-0.435069 1.069078,-0.668174 0.08622,-0.05748 0.503804,-0.359811 0.668174,-0.400904 0.08643,-0.02161 0.195998,0.05345 0.267269,0 0.403135,-0.30235 0.178482,-0.534539 0.668173,-0.534539"
       id="path1031" />
    <text
       xml:space="preserve"
       style="font-size:3.175px;line-height:1.25;font-family:sans-serif;stroke-width:0.264583"
       x="56.92841"
       y="10.557146"
       id="text1035"><tspan
         sodipodi:role="line"
         id="tspan1033"
         x="56.92841"
         y="10.557146"
         style="stroke-width:0.264583">0.375 thick vertical sheet</tspan><tspan
         sodipodi:role="line"
         x="56.92841"
         y="14.525896"
         style="stroke-width:0.264583"
         id="tspan1037">(3 7/8 - (1 3/4 * 2))</tspan></text>
    <path
       style="fill:none;stroke:#008080;stroke-width:0.264583px;stroke-linecap:butt;stroke-linejoin:miter;stroke-opacity:1"
       d="m 136.54437,95.147957 c 0.38875,0.11136 0.77343,0.238059 1.16625,0.334081 0.12788,0.03126 0.27207,-0.02577 0.40091,0 0.24362,0.04872 0.16706,0.116941 0.33408,0.200451 0.21031,0.105154 0.70611,-0.02529 0.86863,-0.133633 0.19506,-0.130042 0.13902,-0.33768 0.33409,-0.467722 0.10368,-0.06912 0.0435,0.113503 0.13363,-0.06682 0.0343,-0.06852 0.0326,-0.19875 0.0668,-0.267269 0.10361,-0.207227 0.21254,-0.382458 0.26727,-0.601358 0.0171,-0.06833 0.13725,-0.200451 0.0668,-0.200451 -0.0223,0 0,0.04454 0,0.06682 0,0.22965 0.0141,0.05092 -0.0668,0.334086 -0.067,0.234519 -0.12633,0.445805 -0.20045,0.668174 -0.11359,0.340767 0.11358,0.795126 0,1.135896 -0.0158,0.04725 -0.0571,0.0848 -0.0668,0.133633 -0.0131,0.06552 0.0248,0.138414 0,0.200454 -0.0234,0.05849 -0.10123,0.07962 -0.13364,0.133635 -0.072,0.119939 -0.13058,0.296098 -0.20045,0.400902 -0.10302,0.15453 -0.28245,0.21563 -0.4009,0.33409 -0.0939,0.09389 -0.0958,0.264318 -0.20045,0.334086 -0.17264,0.115086 -0.16253,0.0096 -0.33409,0.06682 -0.11451,0.03817 -0.23798,0.270012 -0.33409,0.334086 -0.0681,0.04541 -0.22074,0.04057 -0.26727,0.133636 -0.0306,0.06115 0.0453,0.221935 0,0.267269 -0.0157,0.01574 -0.0545,-0.01852 -0.0668,0 -0.0783,0.117491 -0.0933,0.293769 -0.20045,0.400905 -0.0157,0.01574 -0.0568,-0.01992 -0.0668,0 -0.0578,0.115546 -0.0185,0.285755 -0.13363,0.400904 -0.0157,0.01574 -0.0511,-0.01574 -0.0668,0 -0.056,0.05596 -0.14967,0.283311 -0.20045,0.334087 -0.0157,0.01574 -0.0511,-0.01574 -0.0668,0 -0.0924,0.09244 0.0435,0.559461 0,0.668171 -0.0234,0.0585 -0.0987,0.0812 -0.13363,0.13363 -0.16732,0.25097 -0.4896,1.37462 -0.49808,1.40317"
       id="path1043" />
    <text
       xml:space="preserve"
       style="font-size:2.6807px;line-height:1.25;font-family:sans-serif;stroke-width:0.223391"
       x="127.97227"
       y="99.612045"
       id="text1047"
       transform="scale(1.0667916,0.93739019)"><tspan
         sodipodi:role="line"
         id="tspan1045"
         x="127.97227"
         y="99.612045"
         style="stroke-width:0.223391">4  5/8</tspan></text>
    <text
       xml:space="preserve"
       style="font-size:2.90392px;line-height:1.25;font-family:sans-serif;stroke-width:0.241993"
       x="113.81814"
       y="93.26403"
       id="text1051"
       transform="scale(1.0080534,0.99201096)"><tspan
         sodipodi:role="line"
         id="tspan1049"
         x="113.81814"
         y="93.26403"
         style="stroke-width:0.241993">4  7/8</tspan></text>
    <path
       style="fill:none;stroke:#ff5555;stroke-width:0.264583px;stroke-linecap:butt;stroke-linejoin:miter;stroke-opacity:1"
       d="m 122.97435,101.82969 c -0.73386,-0.69441 -0.46581,-0.24877 -0.63172,-0.80181 -0.12959,-0.43194 -0.32901,-0.78657 -0.46773,-1.202712 -0.0467,-0.140075 -0.0195,-0.325776 -0.0668,-0.467722 -0.017,-0.05087 -0.46911,-0.825005 -0.53454,-0.868627 -0.1495,-0.09967 -0.31756,-0.167161 -0.46773,-0.267269 -0.1115,-0.07434 -0.20875,-0.292312 -0.33408,-0.334087 -0.0423,-0.01408 -0.0904,0.0108 -0.13364,0 -0.15721,-0.0393 -0.27091,-0.204097 -0.33408,-0.267269 -0.028,-0.028 -0.15996,-0.04657 -0.20046,-0.06682 -0.0845,-0.04226 -0.12485,-0.143756 -0.20045,-0.200451 -0.0563,-0.04226 -0.15065,-0.01701 -0.20045,-0.06682 -0.0157,-0.01574 0.0157,-0.05107 0,-0.06682 -0.0704,-0.07043 -0.18439,-0.07838 -0.26727,-0.133636 -0.079,-0.05264 -0.0935,-0.160343 -0.13363,-0.200451 -0.0352,-0.03522 -0.0984,-0.0316 -0.13364,-0.06682 -0.0584,-0.0584 -0.0337,-0.267946 -0.0668,-0.334086 -0.17111,-0.342223 -0.12749,0.103655 -0.20045,-0.334087 -0.0286,-0.171797 0.0342,-0.363794 0,-0.534541 -0.0775,-0.387701 -0.20045,-0.722698 -0.20045,-1.135893 0,-0.244999 0,-0.489995 0,-0.734991 0,-0.12133 0.0865,-0.200454 0.0668,-0.200454 -0.0136,0 0.0668,0.294257 0.0668,0.334087 0,0.299516 0.41958,0.553207 0.60136,0.734991 0.13825,0.138248 -0.21126,-0.0054 0.0668,0.133636 0.0199,0.0099 0.0569,-0.01992 0.0668,0 0.0267,0.05345 -0.0267,0.146997 0,0.200451 0.0401,0.08018 0.16037,0.120272 0.20046,0.200454 0.0202,0.04049 0.0388,0.172452 0.0668,0.200451 0.0867,0.08672 0.0836,-0.08325 0.13363,0.06682 0.0931,0.279183 0.0114,0.03909 0.20045,0.133635 0.005,0.0026 0.0854,0.109517 0.13364,0.133633 0.12889,0.06445 0.0231,0.113091 0.0668,0.200454 0.0209,0.04175 0.27922,0.239832 0.33409,0.267269 0.0534,0.02672 0.147,-0.02673 0.20045,0 0.13364,0.06682 0.20045,0.267269 0.33409,0.334087 0.0239,0.01196 0.25958,-0.06297 0.26727,-0.06682 0.0199,-0.0099 -0.0157,-0.05107 0,-0.06682 0.0557,-0.05568 0.2784,0.05568 0.33409,0 0.0935,-0.0935 -0.001,-0.197768 0.0668,-0.334087 0.0739,-0.147735 0.0415,-0.02074 0.13364,-0.06682 0.27808,-0.139038 -0.0714,0.0046 0.0668,-0.133633 0.0255,-0.02556 0.31065,0 0.33408,0 0.6364,0 0.4676,0.150275 0.83218,-0.668168"
       id="path1055" />
    <path
       style="fill:none;stroke:#ff7f2a;stroke-width:0.264583px;stroke-linecap:butt;stroke-linejoin:miter;stroke-opacity:1"
       d="m 133.50113,28.664656 c 0.77362,0.53135 0.34541,0.557186 0.53454,0.935443 0.01,0.01992 0.0445,0 0.0668,0 0.0223,0.02228 0.0569,0.03693 0.0668,0.06682 0.0964,0.289295 -0.12773,-0.02455 0.0668,0.267271 0.04,0.05997 0.19751,0.331145 0.20045,0.334087 0.0157,0.01574 0.0569,-0.01992 0.0668,0 0.0488,0.09752 -0.0233,0.310745 0.0668,0.400902 0.0829,0.08294 0.15092,0.08411 0.20045,0.133635 0.0315,0.0315 -0.0247,0.09657 0,0.133636 0.0699,0.104831 0.16244,0.197382 0.26727,0.267269 0.0185,0.01236 0.0569,-0.01992 0.0668,0 0.0411,0.08214 0.0307,0.182864 0.0668,0.267269 0.093,0.217096 0.32699,0.312782 0.40091,0.53454 0.052,0.155948 -0.051,0.224213 0.0668,0.400905 0.0124,0.01852 0.0469,-0.0099 0.0668,0 0.10983,0.05491 0.12309,0.260276 0.13364,0.334087 0.0189,0.132291 -0.0945,0.306408 0,0.400904 0.0334,0.03341 0.10022,0.03341 0.13363,0.06681 0.009,0.009 0,0.868318 0,0.935445 0,1.394513 -0.0937,2.845745 0.13363,4.209495 0.0325,0.195035 -0.0325,0.406323 0,0.601355 0.0521,0.312526 0.35543,0.435547 0.46773,0.734992 0.11478,0.306085 0.0827,0.562758 0.13363,0.868627 0.0583,0.349551 0.22453,0.673592 0.33409,1.00226 0.0462,0.138636 0.0419,1.178647 0.0668,1.403165 0.16435,1.479134 0.13489,3.326997 0,4.810852 -0.0535,0.588407 0,1.212789 0,1.80407 0,0.417853 -0.009,0.795848 -0.0668,1.202711 -0.0606,0.424325 0,0.907425 0,1.336349 0,0.447641 -0.0637,0.849868 -0.13364,1.269529 -0.052,0.311814 0.039,0.194884 0,0.467723 -0.0785,0.54932 -0.23786,1.111832 -0.26727,1.670433 -0.0303,0.576493 -0.009,1.162773 -0.0668,1.737252 -0.10615,1.061524 -0.022,-0.291486 -0.13364,0.601358 -0.0111,0.0884 0.0193,0.1803 0,0.267269 -0.026,0.117083 -0.10761,0.217001 -0.13363,0.334087 -0.13532,0.608943 0.0345,1.263192 -0.0668,1.870887 -0.0302,0.181163 -0.11086,0.352293 -0.13364,0.534538 -0.0234,0.186989 -0.0523,1.832983 0,1.937705 0.0299,0.05976 0.13563,-0.01622 0.20046,0 0.0483,0.01207 0.0843,0.05977 0.13363,0.06682 0.74674,0.106677 1.5113,0.133633 2.27179,0.133633 0.19246,0 1.60362,0.08317 1.60362,0 0,-0.02228 -0.0445,0 -0.0668,0 -0.13363,0 -0.26727,0 -0.4009,0 -0.077,0 -0.57446,0.106741 -0.60136,0.133635 -0.0352,0.03522 -0.0316,0.09842 -0.0668,0.133636 -0.0585,0.05847 -0.25952,0.04196 -0.33409,0.06681 -0.0945,0.0315 -0.17278,0.102137 -0.26727,0.133636 -0.33104,0.110347 0.0638,0.02328 -0.26727,0.133636 -0.0423,0.01408 -0.10214,-0.0315 -0.13363,0 -0.15307,0.153067 -0.28121,0.671049 -0.33409,0.935442 -0.0223,0.111509 -0.21802,0.436028 -0.26727,0.534541 -0.0508,0.101576 -0.0246,0.228639 -0.0668,0.334086 -0.0234,0.05849 -0.10546,0.07729 -0.13363,0.133633 -0.32266,0.645316 0.0861,-0.124608 -0.0668,0.334087 -0.13793,0.413777 -0.39483,0.832157 -0.46772,1.269532 -0.0181,0.108352 0.0181,0.225734 0,0.334086 -0.0394,0.236112 -0.10888,0.752301 -0.20046,0.935443 -0.068,0.135948 0,1.00494 0,1.202714 0,0.133633 -0.0324,0.271258 0,0.400904 0.13183,0.527315 0.31118,1.065268 0.40091,1.603616 0.073,0.437756 0.0243,0.899223 0.13363,1.336349 0.20826,0.833015 0.0955,-0.247771 0.20046,0.801807 0.0309,0.308658 -0.0343,0.627166 0,0.935445 0.0384,0.345832 0.20045,0.656577 0.20045,1.00226 0,0.185293 -0.01,-0.106659 0.0668,0.200451 0.027,0.108037 -0.027,0.22605 0,0.334087 0.008,0.03056 0.0592,0.03626 0.0668,0.06682 0.0424,0.169717 0,0.496329 0,0.668173 0,0.295148 0.0845,1.216605 0,1.469983 -0.14634,0.439015 -0.17086,0.987938 -0.26727,1.469982 -0.0581,0.290354 0.0931,0.656289 0,0.935445 -0.0738,0.221541 -0.0712,0.485101 -0.13363,0.734989 -0.0371,0.148341 0.0682,0.398185 0,0.53454 -0.01,0.01992 -0.0469,-0.0099 -0.0668,0 -0.0577,0.02885 -0.18694,0.213218 -0.20045,0.267269 -0.0576,0.230587 0.0576,0.504407 0,0.734992 -0.0195,0.07791 -0.10381,0.125891 -0.13364,0.200453 -0.11261,0.281522 -0.22934,0.565238 -0.26727,0.868625 -0.0345,0.275905 -0.0681,0.539615 -0.13363,0.801809 -0.0376,0.150453 0.069,0.396592 0,0.534538 -0.0466,0.09312 -0.10972,0.147682 -0.13363,0.267271 -0.0181,0.09028 0.0448,0.311314 0,0.400905 -0.0466,0.09312 -0.10972,0.147682 -0.13364,0.267269 -0.0413,0.206639 -0.0164,0.399684 -0.0668,0.601355 -0.0799,0.319696 0.0322,0.838772 -0.0668,1.135896 -0.0702,0.210727 -0.15141,0.489783 -0.20045,0.734991 -0.0249,0.124415 0.0399,0.281223 0,0.400905 -0.0315,0.09449 -0.1141,0.169598 -0.13363,0.267269 -0.0288,0.144076 0.001,0.331263 -0.0668,0.467722 -0.0265,0.05301 -0.13004,0.126439 -0.13363,0.133633 -0.0368,0.07358 0.0261,0.188921 0,0.267272 -0.0872,0.261683 -0.32131,0.496178 -0.40091,0.734991 -0.0601,0.180258 -0.006,0.419497 -0.0668,0.601356 -0.0153,0.04585 -0.11084,0.31129 -0.13363,0.334086 -0.0157,0.01574 -0.0511,-0.01574 -0.0668,0 -0.058,0.05801 -0.10221,0.636757 -0.13363,0.668174 -0.0157,0.01574 -0.0511,-0.01574 -0.0668,0 -0.0315,0.0315 0.0315,0.102137 0,0.133636 -0.0157,0.01574 -0.0511,-0.01574 -0.0668,0 -0.0513,0.05129 -0.0384,0.210346 -0.0668,0.267269 -0.01,0.01992 -0.0511,-0.01574 -0.0668,0 -0.18814,0.0042 -0.017,0.150648 -0.0668,0.200451 -0.0157,0.01574 -0.0511,-0.01574 -0.0668,0 -0.0408,0.04081 -0.0328,0.466587 -0.0668,0.53454 -0.0677,0.135432 -0.12995,0.129955 -0.20045,0.200451 -0.0315,0.0315 0.0315,0.102137 0,0.133636 -0.0157,0.01574 -0.0511,-0.01574 -0.0668,0 -0.0315,0.0315 0.0315,0.102137 0,0.133635 -0.0157,0.01574 -0.0511,-0.01574 -0.0668,0 -0.0334,0.03341 0.0334,0.167042 0,0.200451 -0.0714,0.0714 -0.13363,-0.09498 -0.13363,0.06682 -0.11137,0.222724 -0.22273,0.44545 -0.33409,0.668174"
       id="path1059" />
    <text
       xml:space="preserve"
       style="font-size:2.10859px;line-height:1.25;font-family:sans-serif;stroke-width:0.175716"
       x="139.28966"
       y="61.104111"
       id="text1063"
       transform="scale(0.98302254,1.0172707)"><tspan
         sodipodi:role="line"
         x="139.28966"
         y="61.104111"
         style="stroke-width:0.175716"
         id="tspan1065">71  3/4</tspan></text>
    <circle
       style="fill:#d40000;stroke:#ff7f2a;stroke-width:0.264583"
       id="path1069"
       cx="56.69643"
       cy="155.34822"
       r="21.733631" />
    <text
       xml:space="preserve"
       style="font-size:4.67616px;line-height:1.25;font-family:sans-serif;stroke-width:0.38968"
       x="42.472004"
       y="148.57977"
       id="text1073"
       transform="scale(0.98479407,1.0154407)"><tspan
         sodipodi:role="line"
         id="tspan1071"
         x="42.472004"
         y="148.57977"
         style="stroke-width:0.38968">pulley wheel</tspan></text>
    <path
       style="fill:none;stroke:#ff00ff;stroke-width:0.264583px;stroke-linecap:butt;stroke-linejoin:miter;stroke-opacity:1"
       d="m 34.584822,155.91518 c -1.034187,0.11112 -0.608121,-0.0412 -0.944941,-0.37798 -0.08909,-0.0891 -0.265287,0.0563 -0.377976,0 -0.324215,-0.16211 -0.559416,-0.43845 -0.94494,-0.56696 -0.313921,-0.10464 -0.837375,0.14827 -1.13393,0 -0.27286,-0.13643 -0.483093,-0.24155 -0.755952,-0.37798 -0.114107,-0.0571 -0.479602,0.0874 -0.566965,0 -0.04454,-0.0445 0.04454,-0.14444 0,-0.18899 -0.0686,-0.0686 -1.148009,-0.29052 -1.322917,-0.37797 -0.303284,-0.15165 -0.07469,-0.22634 -0.377976,-0.37798 -0.302381,-0.15119 -0.831548,0.15119 -1.133927,0 -0.404765,-0.20238 -1.40038,-0.0775 -1.511905,-0.18899 -0.09449,-0.0945 -0.09449,-0.28348 -0.188988,-0.37797 -0.260534,-0.26054 -0.894609,0.28965 -1.133929,-0.18899 -0.17797,-0.35594 0.730203,-0.18255 0.755952,-0.18899 0.278555,-0.0696 1.142561,-0.5756 1.322917,-0.75595 0.04454,-0.0445 -0.05635,-0.16082 0,-0.18899 0.464742,-0.23237 1.393882,-0.0237 1.88988,-0.18899 0.488149,-0.16272 0.889429,-0.53921 1.322917,-0.75595 0.287253,-0.14363 0.876591,-0.12064 1.13393,-0.37798 0.01384,-0.0138 1.830766,-2.09051 1.889879,-2.26786 0.03984,-0.11952 -0.05635,-0.26528 0,-0.37797 0.02817,-0.0564 0.160817,0.0563 0.188989,0 0.08452,-0.16904 -0.133635,-0.43333 0,-0.56697 0.04455,-0.0445 0.144444,0.0445 0.188987,0 0.07032,-0.0703 0.489249,-1.84572 0.566965,-2.07886 0.206301,-0.6189 0.585356,-1.39649 0.755952,-2.07887 0.03056,-0.12223 -0.05634,-0.26529 0,-0.37798 0.02817,-0.0563 0.144444,0.0445 0.188989,0 0.143065,-0.14306 0.513069,-1.29632 0.566965,-1.5119 0.06111,-0.24447 -0.112691,-0.53058 0,-0.75596 0.152228,-0.30445 0.08364,-0.43989 0.188987,-0.75595 0.212751,-0.63825 0.660725,-1.32145 0.94494,-1.88988 0.314929,-0.62986 0.932067,-0.6128 1.322917,-1.13393 0.0756,-0.10079 -0.03984,-0.25845 0,-0.37798 0.100433,-0.30129 0.630243,-0.63066 0.755952,-0.94494 0.04679,-0.11698 -0.05634,-0.26528 0,-0.37797 0.02817,-0.0564 0.149635,0.0492 0.188989,0 0.229468,-0.28684 0.325078,-0.6685 0.566965,-0.94494 0.207415,-0.23705 0.559186,-0.32101 0.755952,-0.56697 0.0787,-0.0984 0,-0.25198 0,-0.37797 0.063,-0.126 0.08938,-0.27837 0.188989,-0.37798 0.737568,-0.73757 0.101494,0.0438 0.566962,-0.18899 0.305692,-0.15284 0.282721,-0.56645 0.566965,-0.75595 0.23441,-0.15627 0.556742,-0.17876 0.755952,-0.37798 0.140864,-0.14086 0.04812,-0.4261 0.188989,-0.56696 0.04901,-0.049 1.231225,-0.0973 1.511903,-0.37798 0.04454,-0.0445 -0.04454,-0.14444 0,-0.18898 0.140864,-0.14087 0.401212,-0.0785 0.566965,-0.18899 1.433571,-0.95571 2.977616,-0.44433 4.535715,-0.75595 0.855385,-0.17108 4.74122,-0.49847 5.669643,-0.18899 0.08452,0.0282 0.125992,0.12599 0.188989,0.18899 0.251984,0 0.503968,0 0.755951,0 1.064938,0 2.557587,0.25829 3.590775,0 0.696917,-0.17423 1.39606,-0.39627 2.078868,-0.56697 0.497909,-0.12448 0.733602,-0.51575 1.133927,-0.75595 0.400836,-0.2405 0.918639,-0.29745 1.322917,-0.56697 0.148257,-0.0988 0.212542,-0.3118 0.377978,-0.37797 0.270373,-0.10815 1.288095,-0.23125 1.511904,-0.56697 0.06989,-0.10483 -0.05635,-0.26528 0,-0.37797 0.229253,-0.45851 0.739777,-0.81001 0.94494,-1.32292 0.04679,-0.11698 -0.06989,-0.27314 0,-0.37797 0.09316,-0.13974 0.508903,-0.14573 0.566966,-0.37798 0.125883,-0.50354 0.192436,-1.13393 0.188986,-1.13393 -0.063,0 0,0.12599 0,0.18899 0,0.37797 0,0.75595 0,1.13393 0,0.81894 0,1.63789 0,2.45684 0,0.12959 0.781317,1.59181 0.944941,1.7009 0.165753,0.1105 0.477874,0.0108 0.566965,0.18898 0.05635,0.11269 -0.05635,0.26529 0,0.37798 0.07294,0.14588 0.5148,0.21721 0.755952,0.37798 0.614232,0.40948 1.0365,1.1797 1.700892,1.5119 0.05635,0.0282 0.125992,0 0.188989,0 0.251984,0.12599 0.530572,0.20894 0.755952,0.37798 0.0504,0.0378 0,0.12599 0,0.18898 0.063,0.063 0.114861,0.13957 0.188989,0.18899 0.504225,0.33615 1.540825,0.42136 1.889879,0.94494 0.06989,0.10483 -0.08909,0.28889 0,0.37798 1.138738,1.13873 0.08173,-0.38649 0.944941,0.18899 0.117205,0.0781 0.0763,0.29346 0.188989,0.37797 0.159369,0.11953 0.377976,0.126 0.566965,0.18899 0.251984,0.12599 0.535959,0.20198 0.755952,0.37798 0.319778,0.25582 0.480959,0.97927 0.944941,1.13393 0.253746,0.0846 1.111996,0.15609 1.133927,0.18898 0.05843,0.0876 0.130561,0.8573 0.188989,0.94494 0.07814,0.11721 0.260771,0.11086 0.377976,0.18899 0.37437,0.24958 0.49774,0.98487 0.944941,1.13393 0.119526,0.0399 0.258448,-0.0398 0.377976,0 0.392983,0.131 0.590259,1.04676 0.755951,1.32292 0.325298,0.54216 0.969503,0.98178 1.322917,1.5119 0.299953,0.44993 0.331706,1.41937 0.566965,1.88988 0.422521,0.84505 0.377976,0.0504 0.377976,0.56697 0,2.58284 0,5.16567 0,7.74851 0,0.1882 -0.10899,1.21393 0,1.32292 0.04454,0.0445 0.154043,-0.0524 0.188989,0 0.221898,0.33284 0.326202,0.91905 0.755952,1.13393 0.05634,0.0282 0.144444,-0.0446 0.188986,0 0.04455,0.0445 -0.05241,0.15404 0,0.18898 0.234413,0.15628 0.503971,0.25199 0.755955,0.37798 0.112691,0.0563 0.288885,-0.0891 0.377975,0 0.04455,0.0445 -0.02817,0.13264 0,0.18899 0.177332,0.35466 0.608354,0.27177 0.755952,0.56696 0.392062,0.78412 0.377976,1.5569 0.377976,2.45685 0,0.16257 0.09761,1.03631 0,1.13393 -0.08909,0.0891 -0.258448,-0.0399 -0.377976,0 -0.730761,0.24358 -1.28388,0.74619 -2.078868,0.94494 -0.276527,0.0691 -0.941179,-0.004 -1.13393,0.18898 -0.04454,0.0445 0.04454,0.14445 0,0.18899 -0.188987,0.18899 -0.944938,-0.18899 -1.133928,0 -0.123896,0.1239 -0.283292,0.47228 -0.377976,0.56697 -0.108219,0.10822 -0.58157,0.13086 -0.755951,0.18898 -1.36892,0.45631 0.297958,-0.0545 -0.566965,0.37798 -0.447654,0.22383 -1.13393,-0.10209 -1.13393,0.56697"
       id="path1077" />
    <text
       xml:space="preserve"
       style="font-size:3.175px;line-height:1.25;font-family:sans-serif;stroke-width:0.264583"
       x="62.744045"
       y="121.33035"
       id="text1081"><tspan
         sodipodi:role="line"
         id="tspan1079"
         x="62.744045"
         y="121.33035"
         style="stroke-width:0.264583">3 1/2&quot;</tspan></text>
    <path
       style="fill:none;stroke:#000000;stroke-width:0.264583px;stroke-linecap:butt;stroke-linejoin:miter;stroke-opacity:1"
       d="m 71.059523,177.45982 c -0.178332,0.39735 -0.692144,3.2766 -0.377976,3.59077 0.267269,0.26727 0.755952,0 1.133928,0 0.07782,0 0.516938,0.05 0.566965,0 0.04454,-0.0445 -0.04454,-0.14444 0,-0.18898 0.258665,-0.25867 0.982115,-0.39657 1.322917,-0.56697 0.209311,-0.10466 0.324048,-1.13393 1.322916,-1.13393"
       id="path1083" />
    <path
       style="fill:none;stroke:#000000;stroke-width:0.264583px;stroke-linecap:butt;stroke-linejoin:miter;stroke-opacity:1"
       d="m 71.059523,177.45982 c 0,0.81895 -0.258974,1.67992 0,2.45684 0.0996,0.29882 0.365318,-0.51397 0.566965,-0.75595 0.452099,-0.54252 0.825614,-1.20359 1.322917,-1.70089 0.443209,-0.44321 -0.133636,0.0445 0.566962,-0.18899 0.315034,-0.10501 0.421447,-0.61043 0.566965,-0.75595 0.178629,-0.17863 0.427609,0.22908 0.566965,-0.18899 0.133356,-0.40006 0.07195,-1.39487 0.377976,-1.70089 0.04454,-0.0445 0.144444,0.0445 0.188987,0 0.10618,-0.10618 0.143547,-0.80862 0.188989,-0.94494 0.158102,-0.47431 0.353396,-0.16441 0.566965,-0.37798 0.08909,-0.0891 -0.03984,-0.25845 0,-0.37797 0.19353,-0.5806 0.51707,-0.70606 0.755952,-0.94495 0.08909,-0.0891 -0.08909,-0.28888 0,-0.37797 0.391022,-0.39102 -0.01529,0.59753 0.377976,-0.18899 0.05635,-0.11269 -0.08909,-0.28889 0,-0.37798 0.09449,-0.0945 0.453572,0.0756 0.566965,0 0.424479,-0.28298 0.520461,-0.47296 0.94494,-0.75595 0.05504,-0.0367 0.456891,-0.1156 0.566963,-0.18899 0.320839,-0.21389 0.493011,-1.24896 0.566965,-1.32291 0.04454,-0.0445 0.144444,0.0445 0.188989,0 0.157491,-0.15749 -0.157491,-0.78745 0,-0.94494 0.464235,-0.46424 0.377976,-0.25181 0.377976,-0.94494 0.977799,2.4734 -1.333615,0.76665 -1.700892,1.13393 -0.09961,0.0996 -0.08938,0.27837 -0.188988,0.37797 -0.0795,0.0795 -0.686732,-0.0346 -0.755953,0 -0.125992,0.063 -0.063,0.31498 -0.188988,0.37798 -0.327201,0.1636 -1.133928,-0.16909 -1.133928,0.37798"
       id="path1085" />
    <path
       style="fill:none;stroke:#000000;stroke-width:0.264583px;stroke-linecap:butt;stroke-linejoin:miter;stroke-opacity:1"
       d="m 80.31994,166.87649 c 0.423426,1.37681 1.604187,6.41674 0,0"
       id="path1087" />
    <text
       xml:space="preserve"
       style="font-size:3.175px;line-height:1.25;font-family:sans-serif;stroke-width:0.264583"
       x="78.052086"
       y="175.38094"
       id="text1091"><tspan
         sodipodi:role="line"
         id="tspan1089"
         x="78.052086"
         y="175.38094"
         style="stroke-width:0.264583">(Outer rim thickness):</tspan><tspan
         sodipodi:role="line"
         x="78.052086"
         y="179.34969"
         style="stroke-width:0.264583"
         id="tspan1101">11/16</tspan></text>
    <text
       xml:space="preserve"
       style="font-size:3.175px;line-height:1.25;font-family:sans-serif;stroke-width:0.264583"
       x="76.351189"
       y="179.5387"
       id="text1095"><tspan
         sodipodi:role="line"
         id="tspan1093"
         x="76.351189"
         y="179.5387"
         style="stroke-width:0.264583"></tspan><tspan
         sodipodi:role="line"
         x="76.351189"
         y="183.50745"
         style="stroke-width:0.264583"
         id="tspan1097">(Inner axel):</tspan><tspan
         sodipodi:role="line"
         x="76.351189"
         y="187.4762"
         style="stroke-width:0.264583"
         id="tspan1099">13/16</tspan></text>
  </g>
</svg>
